<svg xmlns="http://www.w3.org/2000/svg" xmlns:v="https://svgstorm.com"
viewBox = "0 0 277 182"
width="277"
height="182">
<g fill="None" fill-opacity="0.0" stroke="#000000" stroke-opacity="0.00" stroke-width="0.3"><path d="
M 0.00 131.00 
C 2.68 122.95 6.00 113.42 11.25 106.25 C 16.50 99.09 21.69 92.48 28.25 86.25 C 34.81 80.02 41.11 74.48 48.25 69.25 C 55.38 64.01 62.94 58.91 70.70 54.70 C 78.45 50.48 84.75 43.46 92.75 39.75 C 100.74 36.03 108.47 36.47 116.23 30.23 C 123.99 23.98 131.99 21.97 140.69 17.69 C 149.40 13.42 157.71 10.13 167.08 7.08 C 176.44 4.02 187.76 1.42 198.00 1.00
C 197.99 1.00 198.00 0.00 198.00 0.00
L 0.00 0.00
L 0.00 131.00 Z"/>
</g>
<g fill="None" fill-opacity="0.0" stroke="#AEB1B0" stroke-opacity="0.24" stroke-width="0.3"><path d="
M 198.00 1.00 
C 200.21 0.91 203.61 1.82 205.00 0.00
L 198.00 0.00
C 198.00 0.00 197.99 1.00 198.00 1.00 Z"/>
</g>
<g fill="None" fill-opacity="0.0" stroke="#F6F9FA" stroke-opacity="0.98" stroke-width="0.3"><path d="
M 198.00 1.00 
C 187.76 1.42 176.44 4.02 167.08 7.08 C 157.71 10.13 149.40 13.42 140.69 17.69 C 131.99 21.97 123.99 23.98 116.23 30.23 C 108.47 36.47 100.74 36.03 92.75 39.75 C 84.75 43.46 78.45 50.48 70.70 54.70 C 62.94 58.91 55.38 64.01 48.25 69.25 C 41.11 74.48 34.81 80.02 28.25 86.25 C 21.69 92.48 16.50 99.09 11.25 106.25 C 6.00 113.42 2.68 122.95 0.00 131.00
L 0.00 146.00
C 6.61 170.13 33.83 180.54 57.00 181.00
C 59.20 181.04 62.61 180.21 64.00 182.00
L 80.00 182.00
C 81.14 180.37 84.12 181.05 86.00 181.00
C 125.53 179.89 169.25 163.03 202.70 144.69 C 236.14 126.36 265.29 101.91 277.00 66.00
L 277.00 52.00
C 274.99 37.68 261.46 32.02 256.07 19.93 C 250.68 7.83 234.35 2.57 223.00 0.00
L 205.00 0.00
C 203.61 1.82 200.21 0.91 198.00 1.00
M 257.00 29.00 
C 257.30 29.22 257.74 29.77 258.00 30.00
C 265.83 36.92 273.23 42.73 274.00 54.00
C 274.68 57.78 274.83 61.25 274.00 65.00
C 270.88 79.10 263.46 90.93 254.00 102.00
C 250.63 105.94 246.89 109.67 243.00 113.00
C 231.57 122.77 219.83 131.61 207.00 139.00
C 204.38 137.56 206.86 133.41 207.00 132.00
C 207.00 127.33 207.00 122.67 207.00 118.00
C 207.00 94.65 206.30 72.22 202.00 50.00
C 196.32 51.17 192.54 56.27 187.00 58.00
C 182.70 82.16 184.21 107.81 184.00 133.00
C 184.00 134.67 184.00 136.33 184.00 138.00
C 184.23 140.17 185.22 143.13 185.00 146.00
C 184.45 153.21 177.93 154.01 171.92 156.92 C 165.92 159.84 159.91 160.90 154.00 164.00
C 153.36 159.75 155.64 156.27 155.00 152.00
C 158.74 118.54 158.31 82.31 151.00 50.00
C 146.51 53.07 141.56 55.10 137.00 58.00
C 132.27 90.42 131.42 125.37 136.00 158.00
C 138.11 173.14 128.13 171.39 116.00 174.00 C 103.87 176.60 94.45 178.55 82.00 179.00
C 85.74 176.47 89.39 173.00 93.00 170.00
C 101.87 161.13 108.94 153.27 111.99 140.99 C 115.04 128.71 111.65 113.06 102.25 103.75 C 92.84 94.45 86.15 86.73 85.00 73.00 C 83.85 59.27 99.59 54.02 107.00 46.00
C 109.01 42.64 105.20 42.24 105.00 39.00
C 116.15 34.48 125.71 26.35 137.00 22.00
C 137.65 28.23 137.36 35.41 139.00 41.00
C 141.01 40.95 145.28 37.93 147.00 37.00
C 148.26 36.14 149.07 34.13 151.00 34.00
C 148.87 23.21 150.88 14.01 161.07 12.07 C 171.27 10.13 177.47 7.21 187.02 5.02 C 196.58 2.84 207.26 3.00 217.00 3.00 C 226.74 3.00 235.34 5.47 243.03 9.97 C 250.72 14.48 253.35 21.60 257.00 29.00
M 60.00 78.00 
C 58.09 98.83 76.92 108.46 85.31 125.69 C 93.69 142.93 84.82 163.70 69.00 175.00
C 57.38 183.30 39.41 176.03 27.31 171.69 C 15.20 167.36 4.03 156.04 3.00 143.00
C 2.38 139.77 2.43 137.16 3.00 134.00
C 5.29 100.42 43.25 76.55 68.00 60.00
C 63.84 65.35 61.31 71.46 60.00 78.00 Z"/>
</g>
<g fill="None" fill-opacity="0.0" stroke="#000000" stroke-opacity="0.00" stroke-width="0.3"><path d="
M 277.00 52.00 
L 277.00 0.00
L 223.00 0.00
C 234.35 2.57 250.68 7.83 256.07 19.93 C 261.46 32.02 274.99 37.68 277.00 52.00 Z"/>
</g>
<g fill="None" fill-opacity="0.0" stroke="#BDD4EB" stroke-opacity="1.00" stroke-width="0.3"><path d="
M 147.00 37.00 
C 152.02 34.29 152.93 30.95 152.00 25.00
C 163.50 22.40 174.84 19.12 187.00 19.00
C 187.66 26.50 185.67 35.33 188.00 42.00
C 187.53 29.25 185.12 13.27 201.00 11.00
C 201.00 18.67 201.00 26.33 201.00 34.00
C 199.67 34.99 197.43 35.05 197.00 37.00
C 198.62 36.17 200.13 35.08 202.00 35.00
C 202.00 29.33 202.00 23.67 202.00 18.00
C 221.26 17.92 240.72 19.15 257.00 29.00
C 253.35 21.60 250.72 14.48 243.03 9.97 C 235.34 5.47 226.74 3.00 217.00 3.00 C 207.26 3.00 196.58 2.84 187.02 5.02 C 177.47 7.21 171.27 10.13 161.07 12.07 C 150.88 14.01 148.87 23.21 151.00 34.00
C 149.07 34.13 148.26 36.14 147.00 37.00 Z"/>
</g>
<g fill="None" fill-opacity="0.0" stroke="#FAFEFD" stroke-opacity="1.00" stroke-width="0.3"><path d="
M 188.00 42.00 
C 191.03 40.27 193.90 38.58 197.00 37.00
C 197.43 35.05 199.67 34.99 201.00 34.00
C 201.00 26.33 201.00 18.67 201.00 11.00
C 185.12 13.27 187.53 29.25 188.00 42.00 Z"/>
</g>
<g fill="None" fill-opacity="0.0" stroke="#89B4DB" stroke-opacity="1.00" stroke-width="0.3"><path d="
M 197.00 37.00 
C 193.90 38.58 191.03 40.27 188.00 42.00
C 185.67 35.33 187.66 26.50 187.00 19.00
C 174.84 19.12 163.50 22.40 152.00 25.00
C 152.93 30.95 152.02 34.29 147.00 37.00
C 145.28 37.93 141.01 40.95 139.00 41.00
C 135.01 41.10 137.87 33.29 137.00 29.00
C 126.04 30.91 116.26 36.21 106.00 40.00
C 107.24 41.86 110.86 44.66 107.00 46.00
C 99.59 54.02 83.85 59.27 85.00 73.00 C 86.15 86.73 92.84 94.45 102.25 103.75 C 111.65 113.06 115.04 128.71 111.99 140.99 C 108.94 153.27 101.87 161.13 93.00 170.00
C 106.09 163.95 123.24 165.80 136.00 158.00
C 131.42 125.37 132.27 90.42 137.00 58.00
C 141.56 55.10 146.51 53.07 151.00 50.00
C 158.31 82.31 158.74 118.54 155.00 152.00
C 155.24 151.10 156.79 149.54 156.00 148.00
C 166.28 145.05 174.33 137.03 184.00 133.00
C 184.21 107.81 182.70 82.16 187.00 58.00
C 192.54 56.27 196.32 51.17 202.00 50.00
C 206.30 72.22 207.00 94.65 207.00 118.00
C 208.87 108.15 222.39 102.77 228.77 93.77 C 235.15 84.77 241.40 77.04 247.92 66.92 C 254.45 56.81 254.69 41.05 258.00 30.00
C 257.74 29.77 257.30 29.22 257.00 29.00
C 240.72 19.15 221.26 17.92 202.00 18.00
C 202.00 23.67 202.00 29.33 202.00 35.00
C 200.13 35.08 198.62 36.17 197.00 37.00 Z"/>
</g>
<g fill="None" fill-opacity="0.0" stroke="#C0D6EB" stroke-opacity="1.00" stroke-width="0.3"><path d="
M 107.00 46.00 
C 110.86 44.66 107.24 41.86 106.00 40.00
C 116.26 36.21 126.04 30.91 137.00 29.00
C 137.87 33.29 135.01 41.10 139.00 41.00
C 137.36 35.41 137.65 28.23 137.00 22.00
C 125.71 26.35 116.15 34.48 105.00 39.00
C 105.20 42.24 109.01 42.64 107.00 46.00 Z"/>
</g>
<g fill="None" fill-opacity="0.0" stroke="#065A9F" stroke-opacity="1.00" stroke-width="0.3"><path d="
M 207.00 118.00 
C 207.00 122.67 207.00 127.33 207.00 132.00
C 207.00 134.33 207.00 136.67 207.00 139.00
C 219.83 131.61 231.57 122.77 243.00 113.00
C 246.59 109.41 250.46 105.54 254.00 102.00
C 263.46 90.93 270.88 79.10 274.00 65.00
C 274.36 61.52 274.24 57.49 274.00 54.00
C 273.23 42.73 265.83 36.92 258.00 30.00
C 254.69 41.05 254.45 56.81 247.92 66.92 C 241.40 77.04 235.15 84.77 228.77 93.77 C 222.39 102.77 208.87 108.15 207.00 118.00 Z"/>
</g>
<g fill="None" fill-opacity="0.0" stroke="#85AAC8" stroke-opacity="1.00" stroke-width="0.3"><path d="
M 274.00 65.00 
C 274.83 61.25 274.68 57.78 274.00 54.00
C 274.24 57.49 274.36 61.52 274.00 65.00 Z"/>
</g>
<g fill="None" fill-opacity="0.0" stroke="#085A9F" stroke-opacity="1.00" stroke-width="0.3"><path d="
M 3.00 134.00 
C 2.80 136.89 2.77 140.11 3.00 143.00
C 4.03 156.04 15.20 167.36 27.31 171.69 C 39.41 176.03 57.38 183.30 69.00 175.00
C 70.12 173.99 71.12 172.18 72.00 171.00
C 49.43 174.20 25.67 153.56 30.00 131.00 C 34.33 108.44 44.64 94.19 60.00 78.00
C 61.31 71.46 63.84 65.35 68.00 60.00
C 43.25 76.55 5.29 100.42 3.00 134.00 Z"/>
</g>
<g fill="None" fill-opacity="0.0" stroke="#000000" stroke-opacity="0.00" stroke-width="0.3"><path d="
M 86.00 181.00 
C 85.95 181.00 86.00 182.00 86.00 182.00
L 277.00 182.00
L 277.00 66.00
C 265.29 101.91 236.14 126.36 202.70 144.69 C 169.25 163.03 125.53 179.89 86.00 181.00 Z"/>
</g>
<g fill="None" fill-opacity="0.0" stroke="#89B4DC" stroke-opacity="1.00" stroke-width="0.3"><path d="
M 69.00 175.00 
C 84.82 163.70 93.69 142.93 85.31 125.69 C 76.92 108.46 58.09 98.83 60.00 78.00
C 44.64 94.19 34.33 108.44 30.00 131.00 C 25.67 153.56 49.43 174.20 72.00 171.00
C 71.12 172.18 70.12 173.99 69.00 175.00 Z"/>
</g>
<g fill="None" fill-opacity="0.0" stroke="#85ADD3" stroke-opacity="1.00" stroke-width="0.3"><path d="
M 243.00 113.00 
C 246.89 109.67 250.63 105.94 254.00 102.00
C 250.46 105.54 246.59 109.41 243.00 113.00 Z"/>
</g>
<g fill="None" fill-opacity="0.0" stroke="#BDDCF6" stroke-opacity="1.00" stroke-width="0.3"><path d="
M 207.00 139.00 
C 207.00 136.67 207.00 134.33 207.00 132.00
C 206.86 133.41 204.38 137.56 207.00 139.00 Z"/>
</g>
<g fill="None" fill-opacity="0.0" stroke="#0C5A9D" stroke-opacity="1.00" stroke-width="0.3"><path d="
M 155.00 152.00 
C 155.64 156.27 153.36 159.75 154.00 164.00
C 159.91 160.90 165.92 159.84 171.92 156.92 C 177.93 154.01 184.45 153.21 185.00 146.00
C 184.96 144.15 184.00 140.58 184.00 138.00
C 184.00 136.33 184.00 134.67 184.00 133.00
C 174.33 137.03 166.28 145.05 156.00 148.00
C 156.79 149.54 155.24 151.10 155.00 152.00 Z"/>
</g>
<g fill="None" fill-opacity="0.0" stroke="#97BDE0" stroke-opacity="1.00" stroke-width="0.3"><path d="
M 3.00 143.00 
C 2.77 140.11 2.80 136.89 3.00 134.00
C 2.43 137.16 2.38 139.77 3.00 143.00 Z"/>
</g>
<g fill="None" fill-opacity="0.0" stroke="#A1BFDC" stroke-opacity="1.00" stroke-width="0.3"><path d="
M 185.00 146.00 
C 185.22 143.13 184.23 140.17 184.00 138.00
C 184.00 140.58 184.96 144.15 185.00 146.00 Z"/>
</g>
<g fill="None" fill-opacity="0.0" stroke="#000000" stroke-opacity="0.00" stroke-width="0.3"><path d="
M 0.00 182.00 
L 57.00 182.00
C 57.00 181.50 57.00 181.00 57.00 181.00
C 33.83 180.54 6.61 170.13 0.00 146.00
L 0.00 182.00 Z"/>
</g>
<g fill="None" fill-opacity="0.0" stroke="#105B9D" stroke-opacity="1.00" stroke-width="0.3"><path d="
M 93.00 170.00 
C 89.39 173.00 85.74 176.47 82.00 179.00
C 94.45 178.55 103.87 176.60 116.00 174.00 C 128.13 171.39 138.11 173.14 136.00 158.00
C 123.24 165.80 106.09 163.95 93.00 170.00 Z"/>
</g>
<g fill="None" fill-opacity="0.0" stroke="#B2ABA7" stroke-opacity="0.64" stroke-width="0.3"><path d="
M 57.00 182.00 
L 64.00 182.00
C 62.61 180.21 59.20 181.04 57.00 181.00
C 57.00 181.00 57.00 181.50 57.00 182.00 Z"/>
</g>
<g fill="None" fill-opacity="0.0" stroke="#A5A9AA" stroke-opacity="0.44" stroke-width="0.3"><path d="
M 80.00 182.00 
L 86.00 182.00
C 86.00 182.00 85.95 181.00 86.00 181.00
C 84.12 181.05 81.14 180.37 80.00 182.00 Z"/>
</g>
<g fill="#000000" fill-opacity="0.00" stroke="None">
<path d="
M 0.00 131.00 
C 2.68 122.95 6.00 113.42 11.25 106.25 C 16.50 99.09 21.69 92.48 28.25 86.25 C 34.81 80.02 41.11 74.48 48.25 69.25 C 55.38 64.01 62.94 58.91 70.70 54.70 C 78.45 50.48 84.75 43.46 92.75 39.75 C 100.74 36.03 108.47 36.47 116.23 30.23 C 123.99 23.98 131.99 21.97 140.69 17.69 C 149.40 13.42 157.71 10.13 167.08 7.08 C 176.44 4.02 187.76 1.42 198.00 1.00
C 197.99 1.00 198.00 0.00 198.00 0.00
L 0.00 0.00
L 0.00 131.00 Z"/>
</g>
<g fill="#AEB1B0" fill-opacity="0.24" stroke="None">
<path d="
M 198.00 1.00 
C 200.21 0.91 203.61 1.82 205.00 0.00
L 198.00 0.00
C 198.00 0.00 197.99 1.00 198.00 1.00 Z"/>
</g>
<g fill="#F6F9FA" fill-opacity="0.98" stroke="None">
<path d="
M 198.00 1.00 
C 187.76 1.42 176.44 4.02 167.08 7.08 C 157.71 10.13 149.40 13.42 140.69 17.69 C 131.99 21.97 123.99 23.98 116.23 30.23 C 108.47 36.47 100.74 36.03 92.75 39.75 C 84.75 43.46 78.45 50.48 70.70 54.70 C 62.94 58.91 55.38 64.01 48.25 69.25 C 41.11 74.48 34.81 80.02 28.25 86.25 C 21.69 92.48 16.50 99.09 11.25 106.25 C 6.00 113.42 2.68 122.95 0.00 131.00
L 0.00 146.00
C 6.61 170.13 33.83 180.54 57.00 181.00
C 59.20 181.04 62.61 180.21 64.00 182.00
L 80.00 182.00
C 81.14 180.37 84.12 181.05 86.00 181.00
C 125.53 179.89 169.25 163.03 202.70 144.69 C 236.14 126.36 265.29 101.91 277.00 66.00
L 277.00 52.00
C 274.99 37.68 261.46 32.02 256.07 19.93 C 250.68 7.83 234.35 2.57 223.00 0.00
L 205.00 0.00
C 203.61 1.82 200.21 0.91 198.00 1.00
M 257.00 29.00 
C 257.30 29.22 257.74 29.77 258.00 30.00
C 265.83 36.92 273.23 42.73 274.00 54.00
C 274.68 57.78 274.83 61.25 274.00 65.00
C 270.88 79.10 263.46 90.93 254.00 102.00
C 250.63 105.94 246.89 109.67 243.00 113.00
C 231.57 122.77 219.83 131.61 207.00 139.00
C 204.38 137.56 206.86 133.41 207.00 132.00
C 207.00 127.33 207.00 122.67 207.00 118.00
C 207.00 94.65 206.30 72.22 202.00 50.00
C 196.32 51.17 192.54 56.27 187.00 58.00
C 182.70 82.16 184.21 107.81 184.00 133.00
C 184.00 134.67 184.00 136.33 184.00 138.00
C 184.23 140.17 185.22 143.13 185.00 146.00
C 184.45 153.21 177.93 154.01 171.92 156.92 C 165.92 159.84 159.91 160.90 154.00 164.00
C 153.36 159.75 155.64 156.27 155.00 152.00
C 158.74 118.54 158.31 82.31 151.00 50.00
C 146.51 53.07 141.56 55.10 137.00 58.00
C 132.27 90.42 131.42 125.37 136.00 158.00
C 138.11 173.14 128.13 171.39 116.00 174.00 C 103.87 176.60 94.45 178.55 82.00 179.00
C 85.74 176.47 89.39 173.00 93.00 170.00
C 101.87 161.13 108.94 153.27 111.99 140.99 C 115.04 128.71 111.65 113.06 102.25 103.75 C 92.84 94.45 86.15 86.73 85.00 73.00 C 83.85 59.27 99.59 54.02 107.00 46.00
C 109.01 42.64 105.20 42.24 105.00 39.00
C 116.15 34.48 125.71 26.35 137.00 22.00
C 137.65 28.23 137.36 35.41 139.00 41.00
C 141.01 40.95 145.28 37.93 147.00 37.00
C 148.26 36.14 149.07 34.13 151.00 34.00
C 148.87 23.21 150.88 14.01 161.07 12.07 C 171.27 10.13 177.47 7.21 187.02 5.02 C 196.58 2.84 207.26 3.00 217.00 3.00 C 226.74 3.00 235.34 5.47 243.03 9.97 C 250.72 14.48 253.35 21.60 257.00 29.00
M 60.00 78.00 
C 58.09 98.83 76.92 108.46 85.31 125.69 C 93.69 142.93 84.82 163.70 69.00 175.00
C 57.38 183.30 39.41 176.03 27.31 171.69 C 15.20 167.36 4.03 156.04 3.00 143.00
C 2.38 139.77 2.43 137.16 3.00 134.00
C 5.29 100.42 43.25 76.55 68.00 60.00
C 63.84 65.35 61.31 71.46 60.00 78.00 Z"/>
</g>
<g fill="#000000" fill-opacity="0.00" stroke="None">
<path d="
M 277.00 52.00 
L 277.00 0.00
L 223.00 0.00
C 234.35 2.57 250.68 7.83 256.07 19.93 C 261.46 32.02 274.99 37.68 277.00 52.00 Z"/>
</g>
<g fill="#BDD4EB" fill-opacity="1.00" stroke="None">
<path d="
M 147.00 37.00 
C 152.02 34.29 152.93 30.95 152.00 25.00
C 163.50 22.40 174.84 19.12 187.00 19.00
C 187.66 26.50 185.67 35.33 188.00 42.00
C 187.53 29.25 185.12 13.27 201.00 11.00
C 201.00 18.67 201.00 26.33 201.00 34.00
C 199.67 34.99 197.43 35.05 197.00 37.00
C 198.62 36.17 200.13 35.08 202.00 35.00
C 202.00 29.33 202.00 23.67 202.00 18.00
C 221.26 17.92 240.72 19.15 257.00 29.00
C 253.35 21.60 250.72 14.48 243.03 9.97 C 235.34 5.47 226.74 3.00 217.00 3.00 C 207.26 3.00 196.58 2.84 187.02 5.02 C 177.47 7.21 171.27 10.13 161.07 12.07 C 150.88 14.01 148.87 23.21 151.00 34.00
C 149.07 34.13 148.26 36.14 147.00 37.00 Z"/>
</g>
<g fill="#FAFEFD" fill-opacity="1.00" stroke="None">
<path d="
M 188.00 42.00 
C 191.03 40.27 193.90 38.58 197.00 37.00
C 197.43 35.05 199.67 34.99 201.00 34.00
C 201.00 26.33 201.00 18.67 201.00 11.00
C 185.12 13.27 187.53 29.25 188.00 42.00 Z"/>
</g>
<g fill="#89B4DB" fill-opacity="1.00" stroke="None">
<path d="
M 197.00 37.00 
C 193.90 38.58 191.03 40.27 188.00 42.00
C 185.67 35.33 187.66 26.50 187.00 19.00
C 174.84 19.12 163.50 22.40 152.00 25.00
C 152.93 30.95 152.02 34.29 147.00 37.00
C 145.28 37.93 141.01 40.95 139.00 41.00
C 135.01 41.10 137.87 33.29 137.00 29.00
C 126.04 30.91 116.26 36.21 106.00 40.00
C 107.24 41.86 110.86 44.66 107.00 46.00
C 99.59 54.02 83.85 59.27 85.00 73.00 C 86.15 86.73 92.84 94.45 102.25 103.75 C 111.65 113.06 115.04 128.71 111.99 140.99 C 108.94 153.27 101.87 161.13 93.00 170.00
C 106.09 163.95 123.24 165.80 136.00 158.00
C 131.42 125.37 132.27 90.42 137.00 58.00
C 141.56 55.10 146.51 53.07 151.00 50.00
C 158.31 82.31 158.74 118.54 155.00 152.00
C 155.24 151.10 156.79 149.54 156.00 148.00
C 166.28 145.05 174.33 137.03 184.00 133.00
C 184.21 107.81 182.70 82.16 187.00 58.00
C 192.54 56.27 196.32 51.17 202.00 50.00
C 206.30 72.22 207.00 94.65 207.00 118.00
C 208.87 108.15 222.39 102.77 228.77 93.77 C 235.15 84.77 241.40 77.04 247.92 66.92 C 254.45 56.81 254.69 41.05 258.00 30.00
C 257.74 29.77 257.30 29.22 257.00 29.00
C 240.72 19.15 221.26 17.92 202.00 18.00
C 202.00 23.67 202.00 29.33 202.00 35.00
C 200.13 35.08 198.62 36.17 197.00 37.00 Z"/>
</g>
<g fill="#C0D6EB" fill-opacity="1.00" stroke="None">
<path d="
M 107.00 46.00 
C 110.86 44.66 107.24 41.86 106.00 40.00
C 116.26 36.21 126.04 30.91 137.00 29.00
C 137.87 33.29 135.01 41.10 139.00 41.00
C 137.36 35.41 137.65 28.23 137.00 22.00
C 125.71 26.35 116.15 34.48 105.00 39.00
C 105.20 42.24 109.01 42.64 107.00 46.00 Z"/>
</g>
<g fill="#065A9F" fill-opacity="1.00" stroke="None">
<path d="
M 207.00 118.00 
C 207.00 122.67 207.00 127.33 207.00 132.00
C 207.00 134.33 207.00 136.67 207.00 139.00
C 219.83 131.61 231.57 122.77 243.00 113.00
C 246.59 109.41 250.46 105.54 254.00 102.00
C 263.46 90.93 270.88 79.10 274.00 65.00
C 274.36 61.52 274.24 57.49 274.00 54.00
C 273.23 42.73 265.83 36.92 258.00 30.00
C 254.69 41.05 254.45 56.81 247.92 66.92 C 241.40 77.04 235.15 84.77 228.77 93.77 C 222.39 102.77 208.87 108.15 207.00 118.00 Z"/>
</g>
<g fill="#85AAC8" fill-opacity="1.00" stroke="None">
<path d="
M 274.00 65.00 
C 274.83 61.25 274.68 57.78 274.00 54.00
C 274.24 57.49 274.36 61.52 274.00 65.00 Z"/>
</g>
<g fill="#085A9F" fill-opacity="1.00" stroke="None">
<path d="
M 3.00 134.00 
C 2.80 136.89 2.77 140.11 3.00 143.00
C 4.03 156.04 15.20 167.36 27.31 171.69 C 39.41 176.03 57.38 183.30 69.00 175.00
C 70.12 173.99 71.12 172.18 72.00 171.00
C 49.43 174.20 25.67 153.56 30.00 131.00 C 34.33 108.44 44.64 94.19 60.00 78.00
C 61.31 71.46 63.84 65.35 68.00 60.00
C 43.25 76.55 5.29 100.42 3.00 134.00 Z"/>
</g>
<g fill="#000000" fill-opacity="0.00" stroke="None">
<path d="
M 86.00 181.00 
C 85.95 181.00 86.00 182.00 86.00 182.00
L 277.00 182.00
L 277.00 66.00
C 265.29 101.91 236.14 126.36 202.70 144.69 C 169.25 163.03 125.53 179.89 86.00 181.00 Z"/>
</g>
<g fill="#89B4DC" fill-opacity="1.00" stroke="None">
<path d="
M 69.00 175.00 
C 84.82 163.70 93.69 142.93 85.31 125.69 C 76.92 108.46 58.09 98.83 60.00 78.00
C 44.64 94.19 34.33 108.44 30.00 131.00 C 25.67 153.56 49.43 174.20 72.00 171.00
C 71.12 172.18 70.12 173.99 69.00 175.00 Z"/>
</g>
<g fill="#85ADD3" fill-opacity="1.00" stroke="None">
<path d="
M 243.00 113.00 
C 246.89 109.67 250.63 105.94 254.00 102.00
C 250.46 105.54 246.59 109.41 243.00 113.00 Z"/>
</g>
<g fill="#BDDCF6" fill-opacity="1.00" stroke="None">
<path d="
M 207.00 139.00 
C 207.00 136.67 207.00 134.33 207.00 132.00
C 206.86 133.41 204.38 137.56 207.00 139.00 Z"/>
</g>
<g fill="#0C5A9D" fill-opacity="1.00" stroke="None">
<path d="
M 155.00 152.00 
C 155.64 156.27 153.36 159.75 154.00 164.00
C 159.91 160.90 165.92 159.84 171.92 156.92 C 177.93 154.01 184.45 153.21 185.00 146.00
C 184.96 144.15 184.00 140.58 184.00 138.00
C 184.00 136.33 184.00 134.67 184.00 133.00
C 174.33 137.03 166.28 145.05 156.00 148.00
C 156.79 149.54 155.24 151.10 155.00 152.00 Z"/>
</g>
<g fill="#97BDE0" fill-opacity="1.00" stroke="None">
<path d="
M 3.00 143.00 
C 2.77 140.11 2.80 136.89 3.00 134.00
C 2.43 137.16 2.38 139.77 3.00 143.00 Z"/>
</g>
<g fill="#A1BFDC" fill-opacity="1.00" stroke="None">
<path d="
M 185.00 146.00 
C 185.22 143.13 184.23 140.17 184.00 138.00
C 184.00 140.58 184.96 144.15 185.00 146.00 Z"/>
</g>
<g fill="#000000" fill-opacity="0.00" stroke="None">
<path d="
M 0.00 182.00 
L 57.00 182.00
C 57.00 181.50 57.00 181.00 57.00 181.00
C 33.83 180.54 6.61 170.13 0.00 146.00
L 0.00 182.00 Z"/>
</g>
<g fill="#105B9D" fill-opacity="1.00" stroke="None">
<path d="
M 93.00 170.00 
C 89.39 173.00 85.74 176.47 82.00 179.00
C 94.45 178.55 103.87 176.60 116.00 174.00 C 128.13 171.39 138.11 173.14 136.00 158.00
C 123.24 165.80 106.09 163.95 93.00 170.00 Z"/>
</g>
<g fill="#B2ABA7" fill-opacity="0.64" stroke="None">
<path d="
M 57.00 182.00 
L 64.00 182.00
C 62.61 180.21 59.20 181.04 57.00 181.00
C 57.00 181.00 57.00 181.50 57.00 182.00 Z"/>
</g>
<g fill="#A5A9AA" fill-opacity="0.44" stroke="None">
<path d="
M 80.00 182.00 
L 86.00 182.00
C 86.00 182.00 85.95 181.00 86.00 181.00
C 84.12 181.05 81.14 180.37 80.00 182.00 Z"/>
</g>
</svg>