<svg xmlns="http://www.w3.org/2000/svg" xmlns:v="https://svgstorm.com"
viewBox = "0 0 1600 268"
width="1600"
height="268">
<g fill="None" fill-opacity="0.0" stroke="#000000" stroke-opacity="0.00" stroke-width="0.3"><path d="
M 0.00 268.00 
L 1177.00 268.00
C 1166.76 249.06 1142.79 257.30 1124.00 257.00 C 1105.21 256.70 1080.58 259.32 1063.92 250.08 C 1047.27 240.83 1042.29 223.41 1043.93 205.93 C 1045.57 188.45 1059.05 175.19 1075.00 170.00
C 1047.05 150.40 1042.00 109.01 1061.25 81.25 C 1080.51 53.50 1121.95 47.64 1151.00 62.00
C 1151.25 47.75 1156.15 35.88 1168.23 27.23 C 1180.31 18.58 1193.72 16.83 1208.23 22.77 C 1222.74 28.71 1213.72 56.93 1199.00 51.00 C 1184.28 45.07 1172.33 46.35 1169.02 63.02 C 1165.71 79.70 1179.48 88.30 1181.99 103.01 C 1184.50 117.71 1184.31 134.22 1178.08 147.08 C 1171.84 159.93 1164.22 167.82 1152.31 174.30 C 1140.39 180.79 1122.94 185.96 1109.00 183.00 C 1095.06 180.04 1082.85 182.06 1074.75 195.75 C 1066.64 209.44 1075.60 224.80 1091.00 226.00 C 1106.40 227.20 1126.63 226.50 1142.00 226.00 C 1157.37 225.50 1174.94 223.86 1186.75 233.25 C 1198.55 242.65 1189.99 262.84 1179.00 268.00
L 1600.00 268.00
L 1600.00 0.00
L 0.00 0.00
L 0.00 268.00
M 582.00 1.00 
C 582.00 21.00 582.00 41.00 582.00 61.00
C 600.93 61.73 619.21 59.88 638.00 60.00
C 638.00 68.67 638.00 77.33 638.00 86.00
C 619.15 86.39 600.59 85.68 582.00 85.00
C 582.08 116.76 581.90 147.09 582.00 179.00 C 582.10 210.91 623.42 205.11 638.00 186.00
C 641.85 192.66 648.12 197.99 651.00 205.00
C 633.37 222.93 611.83 229.53 586.98 225.02 C 562.12 220.52 547.62 200.89 549.00 174.00 C 550.38 147.11 547.97 112.58 549.00 85.00
C 539.73 85.53 530.53 86.47 521.00 86.00
C 521.00 78.33 521.00 70.67 521.00 63.00
C 555.30 66.26 564.34 28.52 560.00 1.00
C 567.33 1.00 574.67 1.00 582.00 1.00
M 229.00 145.00 
C 229.12 166.03 235.29 192.76 257.69 200.31 C 280.10 207.85 303.12 197.82 321.00 185.00
C 324.33 192.26 331.08 197.93 335.00 205.00
C 324.99 213.05 316.11 217.59 303.93 221.93 C 291.75 226.26 275.11 227.51 261.93 226.07 C 248.75 224.64 236.18 222.16 225.25 214.75 C 214.33 207.33 208.62 199.70 203.03 187.97 C 197.43 176.25 194.55 162.64 194.00 149.00 C 193.45 135.36 194.75 118.23 198.93 105.93 C 203.10 93.62 207.68 84.17 216.75 74.75 C 225.82 65.33 234.63 60.55 247.02 57.02 C 259.41 53.50 276.81 54.32 289.22 56.78 C 301.63 59.23 311.38 64.63 319.75 74.25 C 328.13 83.87 332.74 96.92 334.00 109.00 C 335.26 121.08 342.82 145.41 326.00 145.00 C 309.18 144.59 294.53 145.21 278.00 145.00 C 261.47 144.79 245.48 145.16 229.00 145.00
M 406.00 54.00 
C 411.29 65.14 416.58 76.20 420.00 88.00
C 424.79 82.08 428.26 75.67 434.25 70.25 C 440.23 64.83 446.50 61.14 454.07 58.07 C 461.65 55.01 472.90 53.86 481.00 55.00 C 489.10 56.14 496.50 60.98 499.92 68.08 C 503.35 75.17 502.18 86.35 494.75 90.75 C 487.32 95.16 477.66 92.29 471.75 86.25 C 465.84 80.21 456.08 80.19 448.92 84.92 C 441.76 89.64 438.77 93.88 433.08 101.08 C 427.39 108.28 425.81 114.90 427.00 125.00 C 428.19 135.10 427.12 145.99 427.00 157.00 C 426.88 168.01 428.51 176.84 427.00 189.00 C 425.49 201.16 434.55 204.97 447.00 202.00
C 447.00 208.33 447.00 214.67 447.00 221.00
C 423.33 221.00 399.67 221.00 376.00 221.00
C 376.00 214.67 376.00 208.33 376.00 202.00
C 388.03 204.73 398.04 200.96 396.00 188.00 C 393.96 175.04 397.93 166.85 396.00 154.00 C 394.07 141.15 396.68 135.26 395.00 121.00 C 393.32 106.74 391.40 74.13 370.00 81.00
C 369.17 76.85 365.88 73.47 366.00 69.00
C 379.64 65.09 392.42 58.27 406.00 54.00
M 717.00 145.00 
C 716.42 153.20 717.84 162.71 719.93 170.07 C 722.01 177.44 724.44 183.78 729.30 189.70 C 734.16 195.62 740.04 198.44 747.07 200.93 C 754.11 203.41 764.65 202.84 772.00 202.00 C 779.35 201.16 786.89 196.60 793.23 194.23 C 799.57 191.85 805.47 182.50 809.92 188.08 C 814.36 193.67 818.80 198.94 822.00 205.00
C 812.35 213.67 803.13 217.73 790.98 221.98 C 778.82 226.22 762.06 227.58 748.98 226.02 C 735.89 224.47 722.26 222.20 711.77 214.23 C 701.28 206.26 695.56 199.50 690.22 187.78 C 684.88 176.05 682.23 162.32 681.07 148.93 C 679.91 135.54 682.83 117.85 686.78 105.78 C 690.73 93.71 694.87 83.92 703.75 74.75 C 712.64 65.59 721.98 60.65 734.07 57.07 C 746.17 53.49 765.28 53.97 777.22 56.78 C 789.17 59.59 800.12 64.62 807.75 74.25 C 815.38 83.88 820.58 96.31 821.93 108.07 C 823.27 119.84 830.52 145.23 814.00 145.00 C 797.48 144.77 782.37 145.12 766.00 145.00 C 749.63 144.88 733.36 145.09 717.00 145.00
M 899.00 145.00 
C 898.52 166.37 904.94 192.38 927.03 199.98 C 949.11 207.57 972.45 198.63 990.00 185.00
C 994.14 192.33 1001.96 197.85 1004.00 206.00
C 993.67 213.19 984.68 218.37 972.32 222.32 C 959.97 226.28 943.24 227.70 929.99 226.01 C 916.75 224.32 904.79 221.63 893.92 214.08 C 883.05 206.54 877.85 198.45 872.08 186.92 C 866.31 175.40 864.70 160.20 864.00 147.00 C 863.30 133.80 864.48 117.94 868.78 105.78 C 873.07 93.61 877.42 83.61 886.30 74.30 C 895.18 64.99 904.94 60.56 917.02 57.02 C 929.11 53.49 947.21 54.07 959.22 56.78 C 971.24 59.48 981.86 64.63 989.75 74.25 C 997.64 83.86 1002.65 97.17 1003.99 109.01 C 1005.33 120.85 1012.62 145.25 996.00 145.00 C 979.38 144.75 964.42 145.13 948.00 145.00 C 931.58 144.87 915.40 145.10 899.00 145.00
M 1313.00 54.00 
C 1346.85 56.60 1377.49 78.28 1382.93 113.07 C 1388.36 147.86 1385.61 191.21 1356.75 212.75 C 1327.89 234.29 1286.65 233.01 1259.25 209.75 C 1231.84 186.50 1230.52 142.48 1237.78 108.78 C 1245.04 75.08 1277.62 51.28 1313.00 54.00
M 53.00 61.00 
C 55.85 63.85 53.58 72.94 54.00 77.00
C 63.25 118.74 80.17 158.56 87.00 201.00
C 91.27 191.00 94.64 179.82 98.32 169.32 C 102.01 158.82 106.41 147.37 109.93 136.93 C 113.44 126.48 118.16 114.72 121.78 104.78 C 125.39 94.83 134.96 76.04 117.00 78.00
C 117.00 72.00 117.00 66.00 117.00 60.00
C 131.67 60.00 146.33 60.00 161.00 60.00
C 162.43 70.60 159.74 81.69 155.68 90.68 C 151.61 99.66 148.88 108.24 145.08 117.08 C 141.27 125.91 138.87 135.42 135.02 144.02 C 131.18 152.63 128.76 161.65 125.02 170.02 C 121.29 178.39 118.84 188.60 114.23 196.23 C 109.62 203.86 111.59 218.53 101.99 220.99 C 92.39 223.45 75.28 219.17 65.00 221.00
C 60.25 204.14 54.02 186.31 48.07 169.93 C 42.13 153.54 37.58 134.65 31.07 118.93 C 24.56 103.20 25.03 76.86 3.00 78.00
C 3.00 72.00 3.00 66.00 3.00 60.00
C 19.50 60.67 37.32 58.67 53.00 61.00
M 1599.00 166.00 
C 1599.00 186.00 1599.00 206.00 1599.00 226.00
C 1557.66 226.00 1516.34 226.00 1475.00 226.00
C 1475.00 206.00 1475.00 186.00 1475.00 166.00
C 1516.34 166.00 1557.66 166.00 1599.00 166.00 Z"/>
</g>
<g fill="None" fill-opacity="0.0" stroke="#0231B5" stroke-opacity="0.96" stroke-width="0.3"><path d="
M 582.00 1.00 
C 574.67 1.00 567.33 1.00 560.00 1.00
C 564.34 28.52 555.30 66.26 521.00 63.00
C 521.00 70.67 521.00 78.33 521.00 86.00
C 530.53 86.47 539.73 85.53 549.00 85.00
C 547.97 112.58 550.38 147.11 549.00 174.00 C 547.62 200.89 562.12 220.52 586.98 225.02 C 611.83 229.53 633.37 222.93 651.00 205.00
C 648.12 197.99 641.85 192.66 638.00 186.00
C 623.42 205.11 582.10 210.91 582.00 179.00 C 581.90 147.09 582.08 116.76 582.00 85.00
C 600.59 85.68 619.15 86.39 638.00 86.00
C 638.00 77.33 638.00 68.67 638.00 60.00
C 619.21 59.88 600.93 61.73 582.00 61.00
C 582.00 41.00 582.00 21.00 582.00 1.00 Z"/>
</g>
<g fill="None" fill-opacity="0.0" stroke="#0332B5" stroke-opacity="0.96" stroke-width="0.3"><path d="
M 1177.00 268.00 
L 1179.00 268.00
C 1189.99 262.84 1198.55 242.65 1186.75 233.25 C 1174.94 223.86 1157.37 225.50 1142.00 226.00 C 1126.63 226.50 1106.40 227.20 1091.00 226.00 C 1075.60 224.80 1066.64 209.44 1074.75 195.75 C 1082.85 182.06 1095.06 180.04 1109.00 183.00 C 1122.94 185.96 1140.39 180.79 1152.31 174.30 C 1164.22 167.82 1171.84 159.93 1178.08 147.08 C 1184.31 134.22 1184.50 117.71 1181.99 103.01 C 1179.48 88.30 1165.71 79.70 1169.02 63.02 C 1172.33 46.35 1184.28 45.07 1199.00 51.00 C 1213.72 56.93 1222.74 28.71 1208.23 22.77 C 1193.72 16.83 1180.31 18.58 1168.23 27.23 C 1156.15 35.88 1151.25 47.75 1151.00 62.00
C 1121.95 47.64 1080.51 53.50 1061.25 81.25 C 1042.00 109.01 1047.05 150.40 1075.00 170.00
C 1059.05 175.19 1045.57 188.45 1043.93 205.93 C 1042.29 223.41 1047.27 240.83 1063.92 250.08 C 1080.58 259.32 1105.21 256.70 1124.00 257.00 C 1142.79 257.30 1166.76 249.06 1177.00 268.00
M 1123.00 76.00 
C 1165.76 82.94 1154.70 170.24 1110.98 161.02 C 1067.25 151.80 1077.92 68.68 1123.00 76.00 Z"/>
</g>
<g fill="None" fill-opacity="0.0" stroke="#0231B5" stroke-opacity="0.96" stroke-width="0.3"><path d="
M 229.00 145.00 
C 245.48 145.16 261.47 144.79 278.00 145.00 C 294.53 145.21 309.18 144.59 326.00 145.00 C 342.82 145.41 335.26 121.08 334.00 109.00 C 332.74 96.92 328.13 83.87 319.75 74.25 C 311.38 64.63 301.63 59.23 289.22 56.78 C 276.81 54.32 259.41 53.50 247.02 57.02 C 234.63 60.55 225.82 65.33 216.75 74.75 C 207.68 84.17 203.10 93.62 198.93 105.93 C 194.75 118.23 193.45 135.36 194.00 149.00 C 194.55 162.64 197.43 176.25 203.03 187.97 C 208.62 199.70 214.33 207.33 225.25 214.75 C 236.18 222.16 248.75 224.64 261.93 226.07 C 275.11 227.51 291.75 226.26 303.93 221.93 C 316.11 217.59 324.99 213.05 335.00 205.00
C 331.08 197.93 324.33 192.26 321.00 185.00
C 303.12 197.82 280.10 207.85 257.69 200.31 C 235.29 192.76 229.12 166.03 229.00 145.00
M 302.00 125.00 
C 278.00 125.00 254.00 125.00 230.00 125.00
C 230.36 101.66 239.76 79.02 266.01 77.01 C 292.26 74.99 305.79 100.56 302.00 125.00 Z"/>
</g>
<g fill="None" fill-opacity="0.0" stroke="#0332B5" stroke-opacity="0.96" stroke-width="0.3"><path d="
M 406.00 54.00 
C 392.42 58.27 379.64 65.09 366.00 69.00
C 365.88 73.47 369.17 76.85 370.00 81.00
C 391.40 74.13 393.32 106.74 395.00 121.00 C 396.68 135.26 394.07 141.15 396.00 154.00 C 397.93 166.85 393.96 175.04 396.00 188.00 C 398.04 200.96 388.03 204.73 376.00 202.00
C 376.00 208.33 376.00 214.67 376.00 221.00
C 399.67 221.00 423.33 221.00 447.00 221.00
C 447.00 214.67 447.00 208.33 447.00 202.00
C 434.55 204.97 425.49 201.16 427.00 189.00 C 428.51 176.84 426.88 168.01 427.00 157.00 C 427.12 145.99 428.19 135.10 427.00 125.00 C 425.81 114.90 427.39 108.28 433.08 101.08 C 438.77 93.88 441.76 89.64 448.92 84.92 C 456.08 80.19 465.84 80.21 471.75 86.25 C 477.66 92.29 487.32 95.16 494.75 90.75 C 502.18 86.35 503.35 75.17 499.92 68.08 C 496.50 60.98 489.10 56.14 481.00 55.00 C 472.90 53.86 461.65 55.01 454.07 58.07 C 446.50 61.14 440.23 64.83 434.25 70.25 C 428.26 75.67 424.79 82.08 420.00 88.00
C 416.58 76.20 411.29 65.14 406.00 54.00 Z"/>
</g>
<g fill="None" fill-opacity="0.0" stroke="#0332B5" stroke-opacity="0.96" stroke-width="0.3"><path d="
M 717.00 145.00 
C 733.36 145.09 749.63 144.88 766.00 145.00 C 782.37 145.12 797.48 144.77 814.00 145.00 C 830.52 145.23 823.27 119.84 821.93 108.07 C 820.58 96.31 815.38 83.88 807.75 74.25 C 800.12 64.62 789.17 59.59 777.22 56.78 C 765.28 53.97 746.17 53.49 734.07 57.07 C 721.98 60.65 712.64 65.59 703.75 74.75 C 694.87 83.92 690.73 93.71 686.78 105.78 C 682.83 117.85 679.91 135.54 681.07 148.93 C 682.23 162.32 684.88 176.05 690.22 187.78 C 695.56 199.50 701.28 206.26 711.77 214.23 C 722.26 222.20 735.89 224.47 748.98 226.02 C 762.06 227.58 778.82 226.22 790.98 221.98 C 803.13 217.73 812.35 213.67 822.00 205.00
C 818.80 198.94 814.36 193.67 809.92 188.08 C 805.47 182.50 799.57 191.85 793.23 194.23 C 786.89 196.60 779.35 201.16 772.00 202.00 C 764.65 202.84 754.11 203.41 747.07 200.93 C 740.04 198.44 734.16 195.62 729.30 189.70 C 724.44 183.78 722.01 177.44 719.93 170.07 C 717.84 162.71 716.42 153.20 717.00 145.00
M 790.00 125.00 
C 765.67 125.00 741.33 125.00 717.00 125.00
C 718.92 101.83 726.15 79.36 753.01 77.01 C 779.86 74.65 792.70 100.43 790.00 125.00 Z"/>
</g>
<g fill="None" fill-opacity="0.0" stroke="#0231B5" stroke-opacity="0.96" stroke-width="0.3"><path d="
M 899.00 145.00 
C 915.40 145.10 931.58 144.87 948.00 145.00 C 964.42 145.13 979.38 144.75 996.00 145.00 C 1012.62 145.25 1005.33 120.85 1003.99 109.01 C 1002.65 97.17 997.64 83.86 989.75 74.25 C 981.86 64.63 971.24 59.48 959.22 56.78 C 947.21 54.07 929.11 53.49 917.02 57.02 C 904.94 60.56 895.18 64.99 886.30 74.30 C 877.42 83.61 873.07 93.61 868.78 105.78 C 864.48 117.94 863.30 133.80 864.00 147.00 C 864.70 160.20 866.31 175.40 872.08 186.92 C 877.85 198.45 883.05 206.54 893.92 214.08 C 904.79 221.63 916.75 224.32 929.99 226.01 C 943.24 227.70 959.97 226.28 972.32 222.32 C 984.68 218.37 993.67 213.19 1004.00 206.00
C 1001.96 197.85 994.14 192.33 990.00 185.00
C 972.45 198.63 949.11 207.57 927.03 199.98 C 904.94 192.38 898.52 166.37 899.00 145.00
M 972.00 125.00 
C 948.00 125.00 924.00 125.00 900.00 125.00
C 899.65 101.42 909.77 78.87 936.00 77.00 C 962.24 75.13 974.97 100.86 972.00 125.00 Z"/>
</g>
<g fill="None" fill-opacity="0.0" stroke="#0231B5" stroke-opacity="0.96" stroke-width="0.3"><path d="
M 1313.00 54.00 
C 1277.62 51.28 1245.04 75.08 1237.78 108.78 C 1230.52 142.48 1231.84 186.50 1259.25 209.75 C 1286.65 233.01 1327.89 234.29 1356.75 212.75 C 1385.61 191.21 1388.36 147.86 1382.93 113.07 C 1377.49 78.28 1346.85 56.60 1313.00 54.00
M 1319.00 79.00 
C 1351.04 84.20 1348.98 124.11 1350.00 150.00 C 1351.02 175.89 1332.60 210.55 1300.78 201.22 C 1268.95 191.89 1269.50 159.85 1269.33 131.33 C 1269.16 102.81 1285.71 73.59 1319.00 79.00 Z"/>
</g>
<g fill="None" fill-opacity="0.0" stroke="#0332B5" stroke-opacity="0.95" stroke-width="0.3"><path d="
M 54.00 77.00 
C 53.35 74.08 54.71 63.44 53.00 61.00
C 37.32 58.67 19.50 60.67 3.00 60.00
C 3.00 66.00 3.00 72.00 3.00 78.00
C 25.03 76.86 24.56 103.20 31.07 118.93 C 37.58 134.65 42.13 153.54 48.07 169.93 C 54.02 186.31 60.25 204.14 65.00 221.00
C 75.28 219.17 92.39 223.45 101.99 220.99 C 111.59 218.53 109.62 203.86 114.23 196.23 C 118.84 188.60 121.29 178.39 125.02 170.02 C 128.76 161.65 131.18 152.63 135.02 144.02 C 138.87 135.42 141.27 125.91 145.08 117.08 C 148.88 108.24 151.61 99.66 155.68 90.68 C 159.74 81.69 162.43 70.60 161.00 60.00
C 146.33 60.00 131.67 60.00 117.00 60.00
C 117.00 66.00 117.00 72.00 117.00 78.00
C 134.96 76.04 125.39 94.83 121.78 104.78 C 118.16 114.72 113.44 126.48 109.93 136.93 C 106.41 147.37 102.01 158.82 98.32 169.32 C 94.64 179.82 91.27 191.00 87.00 201.00
C 80.17 158.56 63.25 118.74 54.00 77.00 Z"/>
</g>
<g fill="None" fill-opacity="0.0" stroke="#5658FB" stroke-opacity="0.01" stroke-width="0.3"><path d="
M 54.00 77.00 
C 53.58 72.94 55.85 63.85 53.00 61.00
C 54.71 63.44 53.35 74.08 54.00 77.00 Z"/>
</g>
<g fill="None" fill-opacity="0.0" stroke="#000000" stroke-opacity="0.00" stroke-width="0.3"><path d="
M 1123.00 76.00 
C 1077.92 68.68 1067.25 151.80 1110.98 161.02 C 1154.70 170.24 1165.76 82.94 1123.00 76.00 Z"/>
</g>
<g fill="None" fill-opacity="0.0" stroke="#000000" stroke-opacity="0.00" stroke-width="0.3"><path d="
M 302.00 125.00 
C 305.79 100.56 292.26 74.99 266.01 77.01 C 239.76 79.02 230.36 101.66 230.00 125.00
C 254.00 125.00 278.00 125.00 302.00 125.00 Z"/>
</g>
<g fill="None" fill-opacity="0.0" stroke="#000000" stroke-opacity="0.00" stroke-width="0.3"><path d="
M 790.00 125.00 
C 792.70 100.43 779.86 74.65 753.01 77.01 C 726.15 79.36 718.92 101.83 717.00 125.00
C 741.33 125.00 765.67 125.00 790.00 125.00 Z"/>
</g>
<g fill="None" fill-opacity="0.0" stroke="#000000" stroke-opacity="0.00" stroke-width="0.3"><path d="
M 972.00 125.00 
C 974.97 100.86 962.24 75.13 936.00 77.00 C 909.77 78.87 899.65 101.42 900.00 125.00
C 924.00 125.00 948.00 125.00 972.00 125.00 Z"/>
</g>
<g fill="None" fill-opacity="0.0" stroke="#000000" stroke-opacity="0.00" stroke-width="0.3"><path d="
M 1319.00 79.00 
C 1285.71 73.59 1269.16 102.81 1269.33 131.33 C 1269.50 159.85 1268.95 191.89 1300.78 201.22 C 1332.60 210.55 1351.02 175.89 1350.00 150.00 C 1348.98 124.11 1351.04 84.20 1319.00 79.00 Z"/>
</g>
<g fill="None" fill-opacity="0.0" stroke="#FE5A54" stroke-opacity="0.98" stroke-width="0.3"><path d="
M 1599.00 166.00 
C 1557.66 166.00 1516.34 166.00 1475.00 166.00
C 1475.00 186.00 1475.00 206.00 1475.00 226.00
C 1516.34 226.00 1557.66 226.00 1599.00 226.00
C 1599.00 206.00 1599.00 186.00 1599.00 166.00 Z"/>
</g>
<g fill="#000000" fill-opacity="0.00" stroke="None">
<path d="
M 0.00 268.00 
L 1177.00 268.00
C 1166.76 249.06 1142.79 257.30 1124.00 257.00 C 1105.21 256.70 1080.58 259.32 1063.92 250.08 C 1047.27 240.83 1042.29 223.41 1043.93 205.93 C 1045.57 188.45 1059.05 175.19 1075.00 170.00
C 1047.05 150.40 1042.00 109.01 1061.25 81.25 C 1080.51 53.50 1121.95 47.64 1151.00 62.00
C 1151.25 47.75 1156.15 35.88 1168.23 27.23 C 1180.31 18.58 1193.72 16.83 1208.23 22.77 C 1222.74 28.71 1213.72 56.93 1199.00 51.00 C 1184.28 45.07 1172.33 46.35 1169.02 63.02 C 1165.71 79.70 1179.48 88.30 1181.99 103.01 C 1184.50 117.71 1184.31 134.22 1178.08 147.08 C 1171.84 159.93 1164.22 167.82 1152.31 174.30 C 1140.39 180.79 1122.94 185.96 1109.00 183.00 C 1095.06 180.04 1082.85 182.06 1074.75 195.75 C 1066.64 209.44 1075.60 224.80 1091.00 226.00 C 1106.40 227.20 1126.63 226.50 1142.00 226.00 C 1157.37 225.50 1174.94 223.86 1186.75 233.25 C 1198.55 242.65 1189.99 262.84 1179.00 268.00
L 1600.00 268.00
L 1600.00 0.00
L 0.00 0.00
L 0.00 268.00
M 582.00 1.00 
C 582.00 21.00 582.00 41.00 582.00 61.00
C 600.93 61.73 619.21 59.88 638.00 60.00
C 638.00 68.67 638.00 77.33 638.00 86.00
C 619.15 86.39 600.59 85.68 582.00 85.00
C 582.08 116.76 581.90 147.09 582.00 179.00 C 582.10 210.91 623.42 205.11 638.00 186.00
C 641.85 192.66 648.12 197.99 651.00 205.00
C 633.37 222.93 611.83 229.53 586.98 225.02 C 562.12 220.52 547.62 200.89 549.00 174.00 C 550.38 147.11 547.97 112.58 549.00 85.00
C 539.73 85.53 530.53 86.47 521.00 86.00
C 521.00 78.33 521.00 70.67 521.00 63.00
C 555.30 66.26 564.34 28.52 560.00 1.00
C 567.33 1.00 574.67 1.00 582.00 1.00
M 229.00 145.00 
C 229.12 166.03 235.29 192.76 257.69 200.31 C 280.10 207.85 303.12 197.82 321.00 185.00
C 324.33 192.26 331.08 197.93 335.00 205.00
C 324.99 213.05 316.11 217.59 303.93 221.93 C 291.75 226.26 275.11 227.51 261.93 226.07 C 248.75 224.64 236.18 222.16 225.25 214.75 C 214.33 207.33 208.62 199.70 203.03 187.97 C 197.43 176.25 194.55 162.64 194.00 149.00 C 193.45 135.36 194.75 118.23 198.93 105.93 C 203.10 93.62 207.68 84.17 216.75 74.75 C 225.82 65.33 234.63 60.55 247.02 57.02 C 259.41 53.50 276.81 54.32 289.22 56.78 C 301.63 59.23 311.38 64.63 319.75 74.25 C 328.13 83.87 332.74 96.92 334.00 109.00 C 335.26 121.08 342.82 145.41 326.00 145.00 C 309.18 144.59 294.53 145.21 278.00 145.00 C 261.47 144.79 245.48 145.16 229.00 145.00
M 406.00 54.00 
C 411.29 65.14 416.58 76.20 420.00 88.00
C 424.79 82.08 428.26 75.67 434.25 70.25 C 440.23 64.83 446.50 61.14 454.07 58.07 C 461.65 55.01 472.90 53.86 481.00 55.00 C 489.10 56.14 496.50 60.98 499.92 68.08 C 503.35 75.17 502.18 86.35 494.75 90.75 C 487.32 95.16 477.66 92.29 471.75 86.25 C 465.84 80.21 456.08 80.19 448.92 84.92 C 441.76 89.64 438.77 93.88 433.08 101.08 C 427.39 108.28 425.81 114.90 427.00 125.00 C 428.19 135.10 427.12 145.99 427.00 157.00 C 426.88 168.01 428.51 176.84 427.00 189.00 C 425.49 201.16 434.55 204.97 447.00 202.00
C 447.00 208.33 447.00 214.67 447.00 221.00
C 423.33 221.00 399.67 221.00 376.00 221.00
C 376.00 214.67 376.00 208.33 376.00 202.00
C 388.03 204.73 398.04 200.96 396.00 188.00 C 393.96 175.04 397.93 166.85 396.00 154.00 C 394.07 141.15 396.68 135.26 395.00 121.00 C 393.32 106.74 391.40 74.13 370.00 81.00
C 369.17 76.85 365.88 73.47 366.00 69.00
C 379.64 65.09 392.42 58.27 406.00 54.00
M 717.00 145.00 
C 716.42 153.20 717.84 162.71 719.93 170.07 C 722.01 177.44 724.44 183.78 729.30 189.70 C 734.16 195.62 740.04 198.44 747.07 200.93 C 754.11 203.41 764.65 202.84 772.00 202.00 C 779.35 201.16 786.89 196.60 793.23 194.23 C 799.57 191.85 805.47 182.50 809.92 188.08 C 814.36 193.67 818.80 198.94 822.00 205.00
C 812.35 213.67 803.13 217.73 790.98 221.98 C 778.82 226.22 762.06 227.58 748.98 226.02 C 735.89 224.47 722.26 222.20 711.77 214.23 C 701.28 206.26 695.56 199.50 690.22 187.78 C 684.88 176.05 682.23 162.32 681.07 148.93 C 679.91 135.54 682.83 117.85 686.78 105.78 C 690.73 93.71 694.87 83.92 703.75 74.75 C 712.64 65.59 721.98 60.65 734.07 57.07 C 746.17 53.49 765.28 53.97 777.22 56.78 C 789.17 59.59 800.12 64.62 807.75 74.25 C 815.38 83.88 820.58 96.31 821.93 108.07 C 823.27 119.84 830.52 145.23 814.00 145.00 C 797.48 144.77 782.37 145.12 766.00 145.00 C 749.63 144.88 733.36 145.09 717.00 145.00
M 899.00 145.00 
C 898.52 166.37 904.94 192.38 927.03 199.98 C 949.11 207.57 972.45 198.63 990.00 185.00
C 994.14 192.33 1001.96 197.85 1004.00 206.00
C 993.67 213.19 984.68 218.37 972.32 222.32 C 959.97 226.28 943.24 227.70 929.99 226.01 C 916.75 224.32 904.79 221.63 893.92 214.08 C 883.05 206.54 877.85 198.45 872.08 186.92 C 866.31 175.40 864.70 160.20 864.00 147.00 C 863.30 133.80 864.48 117.94 868.78 105.78 C 873.07 93.61 877.42 83.61 886.30 74.30 C 895.18 64.99 904.94 60.56 917.02 57.02 C 929.11 53.49 947.21 54.07 959.22 56.78 C 971.24 59.48 981.86 64.63 989.75 74.25 C 997.64 83.86 1002.65 97.17 1003.99 109.01 C 1005.33 120.85 1012.62 145.25 996.00 145.00 C 979.38 144.75 964.42 145.13 948.00 145.00 C 931.58 144.87 915.40 145.10 899.00 145.00
M 1313.00 54.00 
C 1346.85 56.60 1377.49 78.28 1382.93 113.07 C 1388.36 147.86 1385.61 191.21 1356.75 212.75 C 1327.89 234.29 1286.65 233.01 1259.25 209.75 C 1231.84 186.50 1230.52 142.48 1237.78 108.78 C 1245.04 75.08 1277.62 51.28 1313.00 54.00
M 53.00 61.00 
C 55.85 63.85 53.58 72.94 54.00 77.00
C 63.25 118.74 80.17 158.56 87.00 201.00
C 91.27 191.00 94.64 179.82 98.32 169.32 C 102.01 158.82 106.41 147.37 109.93 136.93 C 113.44 126.48 118.16 114.72 121.78 104.78 C 125.39 94.83 134.96 76.04 117.00 78.00
C 117.00 72.00 117.00 66.00 117.00 60.00
C 131.67 60.00 146.33 60.00 161.00 60.00
C 162.43 70.60 159.74 81.69 155.68 90.68 C 151.61 99.66 148.88 108.24 145.08 117.08 C 141.27 125.91 138.87 135.42 135.02 144.02 C 131.18 152.63 128.76 161.65 125.02 170.02 C 121.29 178.39 118.84 188.60 114.23 196.23 C 109.62 203.86 111.59 218.53 101.99 220.99 C 92.39 223.45 75.28 219.17 65.00 221.00
C 60.25 204.14 54.02 186.31 48.07 169.93 C 42.13 153.54 37.58 134.65 31.07 118.93 C 24.56 103.20 25.03 76.86 3.00 78.00
C 3.00 72.00 3.00 66.00 3.00 60.00
C 19.50 60.67 37.32 58.67 53.00 61.00
M 1599.00 166.00 
C 1599.00 186.00 1599.00 206.00 1599.00 226.00
C 1557.66 226.00 1516.34 226.00 1475.00 226.00
C 1475.00 206.00 1475.00 186.00 1475.00 166.00
C 1516.34 166.00 1557.66 166.00 1599.00 166.00 Z"/>
</g>
<g fill="#0231B5" fill-opacity="0.96" stroke="None">
<path d="
M 582.00 1.00 
C 574.67 1.00 567.33 1.00 560.00 1.00
C 564.34 28.52 555.30 66.26 521.00 63.00
C 521.00 70.67 521.00 78.33 521.00 86.00
C 530.53 86.47 539.73 85.53 549.00 85.00
C 547.97 112.58 550.38 147.11 549.00 174.00 C 547.62 200.89 562.12 220.52 586.98 225.02 C 611.83 229.53 633.37 222.93 651.00 205.00
C 648.12 197.99 641.85 192.66 638.00 186.00
C 623.42 205.11 582.10 210.91 582.00 179.00 C 581.90 147.09 582.08 116.76 582.00 85.00
C 600.59 85.68 619.15 86.39 638.00 86.00
C 638.00 77.33 638.00 68.67 638.00 60.00
C 619.21 59.88 600.93 61.73 582.00 61.00
C 582.00 41.00 582.00 21.00 582.00 1.00 Z"/>
</g>
<g fill="#0332B5" fill-opacity="0.96" stroke="None">
<path d="
M 1177.00 268.00 
L 1179.00 268.00
C 1189.99 262.84 1198.55 242.65 1186.75 233.25 C 1174.94 223.86 1157.37 225.50 1142.00 226.00 C 1126.63 226.50 1106.40 227.20 1091.00 226.00 C 1075.60 224.80 1066.64 209.44 1074.75 195.75 C 1082.85 182.06 1095.06 180.04 1109.00 183.00 C 1122.94 185.96 1140.39 180.79 1152.31 174.30 C 1164.22 167.82 1171.84 159.93 1178.08 147.08 C 1184.31 134.22 1184.50 117.71 1181.99 103.01 C 1179.48 88.30 1165.71 79.70 1169.02 63.02 C 1172.33 46.35 1184.28 45.07 1199.00 51.00 C 1213.72 56.93 1222.74 28.71 1208.23 22.77 C 1193.72 16.83 1180.31 18.58 1168.23 27.23 C 1156.15 35.88 1151.25 47.75 1151.00 62.00
C 1121.95 47.64 1080.51 53.50 1061.25 81.25 C 1042.00 109.01 1047.05 150.40 1075.00 170.00
C 1059.05 175.19 1045.57 188.45 1043.93 205.93 C 1042.29 223.41 1047.27 240.83 1063.92 250.08 C 1080.58 259.32 1105.21 256.70 1124.00 257.00 C 1142.79 257.30 1166.76 249.06 1177.00 268.00
M 1123.00 76.00 
C 1165.76 82.94 1154.70 170.24 1110.98 161.02 C 1067.25 151.80 1077.92 68.68 1123.00 76.00 Z"/>
</g>
<g fill="#0231B5" fill-opacity="0.96" stroke="None">
<path d="
M 229.00 145.00 
C 245.48 145.16 261.47 144.79 278.00 145.00 C 294.53 145.21 309.18 144.59 326.00 145.00 C 342.82 145.41 335.26 121.08 334.00 109.00 C 332.74 96.92 328.13 83.87 319.75 74.25 C 311.38 64.63 301.63 59.23 289.22 56.78 C 276.81 54.32 259.41 53.50 247.02 57.02 C 234.63 60.55 225.82 65.33 216.75 74.75 C 207.68 84.17 203.10 93.62 198.93 105.93 C 194.75 118.23 193.45 135.36 194.00 149.00 C 194.55 162.64 197.43 176.25 203.03 187.97 C 208.62 199.70 214.33 207.33 225.25 214.75 C 236.18 222.16 248.75 224.64 261.93 226.07 C 275.11 227.51 291.75 226.26 303.93 221.93 C 316.11 217.59 324.99 213.05 335.00 205.00
C 331.08 197.93 324.33 192.26 321.00 185.00
C 303.12 197.82 280.10 207.85 257.69 200.31 C 235.29 192.76 229.12 166.03 229.00 145.00
M 302.00 125.00 
C 278.00 125.00 254.00 125.00 230.00 125.00
C 230.36 101.66 239.76 79.02 266.01 77.01 C 292.26 74.99 305.79 100.56 302.00 125.00 Z"/>
</g>
<g fill="#0332B5" fill-opacity="0.96" stroke="None">
<path d="
M 406.00 54.00 
C 392.42 58.27 379.64 65.09 366.00 69.00
C 365.88 73.47 369.17 76.85 370.00 81.00
C 391.40 74.13 393.32 106.74 395.00 121.00 C 396.68 135.26 394.07 141.15 396.00 154.00 C 397.93 166.85 393.96 175.04 396.00 188.00 C 398.04 200.96 388.03 204.73 376.00 202.00
C 376.00 208.33 376.00 214.67 376.00 221.00
C 399.67 221.00 423.33 221.00 447.00 221.00
C 447.00 214.67 447.00 208.33 447.00 202.00
C 434.55 204.97 425.49 201.16 427.00 189.00 C 428.51 176.84 426.88 168.01 427.00 157.00 C 427.12 145.99 428.19 135.10 427.00 125.00 C 425.81 114.90 427.39 108.28 433.08 101.08 C 438.77 93.88 441.76 89.64 448.92 84.92 C 456.08 80.19 465.84 80.21 471.75 86.25 C 477.66 92.29 487.32 95.16 494.75 90.75 C 502.18 86.35 503.35 75.17 499.92 68.08 C 496.50 60.98 489.10 56.14 481.00 55.00 C 472.90 53.86 461.65 55.01 454.07 58.07 C 446.50 61.14 440.23 64.83 434.25 70.25 C 428.26 75.67 424.79 82.08 420.00 88.00
C 416.58 76.20 411.29 65.14 406.00 54.00 Z"/>
</g>
<g fill="#0332B5" fill-opacity="0.96" stroke="None">
<path d="
M 717.00 145.00 
C 733.36 145.09 749.63 144.88 766.00 145.00 C 782.37 145.12 797.48 144.77 814.00 145.00 C 830.52 145.23 823.27 119.84 821.93 108.07 C 820.58 96.31 815.38 83.88 807.75 74.25 C 800.12 64.62 789.17 59.59 777.22 56.78 C 765.28 53.97 746.17 53.49 734.07 57.07 C 721.98 60.65 712.64 65.59 703.75 74.75 C 694.87 83.92 690.73 93.71 686.78 105.78 C 682.83 117.85 679.91 135.54 681.07 148.93 C 682.23 162.32 684.88 176.05 690.22 187.78 C 695.56 199.50 701.28 206.26 711.77 214.23 C 722.26 222.20 735.89 224.47 748.98 226.02 C 762.06 227.58 778.82 226.22 790.98 221.98 C 803.13 217.73 812.35 213.67 822.00 205.00
C 818.80 198.94 814.36 193.67 809.92 188.08 C 805.47 182.50 799.57 191.85 793.23 194.23 C 786.89 196.60 779.35 201.16 772.00 202.00 C 764.65 202.84 754.11 203.41 747.07 200.93 C 740.04 198.44 734.16 195.62 729.30 189.70 C 724.44 183.78 722.01 177.44 719.93 170.07 C 717.84 162.71 716.42 153.20 717.00 145.00
M 790.00 125.00 
C 765.67 125.00 741.33 125.00 717.00 125.00
C 718.92 101.83 726.15 79.36 753.01 77.01 C 779.86 74.65 792.70 100.43 790.00 125.00 Z"/>
</g>
<g fill="#0231B5" fill-opacity="0.96" stroke="None">
<path d="
M 899.00 145.00 
C 915.40 145.10 931.58 144.87 948.00 145.00 C 964.42 145.13 979.38 144.75 996.00 145.00 C 1012.62 145.25 1005.33 120.85 1003.99 109.01 C 1002.65 97.17 997.64 83.86 989.75 74.25 C 981.86 64.63 971.24 59.48 959.22 56.78 C 947.21 54.07 929.11 53.49 917.02 57.02 C 904.94 60.56 895.18 64.99 886.30 74.30 C 877.42 83.61 873.07 93.61 868.78 105.78 C 864.48 117.94 863.30 133.80 864.00 147.00 C 864.70 160.20 866.31 175.40 872.08 186.92 C 877.85 198.45 883.05 206.54 893.92 214.08 C 904.79 221.63 916.75 224.32 929.99 226.01 C 943.24 227.70 959.97 226.28 972.32 222.32 C 984.68 218.37 993.67 213.19 1004.00 206.00
C 1001.96 197.85 994.14 192.33 990.00 185.00
C 972.45 198.63 949.11 207.57 927.03 199.98 C 904.94 192.38 898.52 166.37 899.00 145.00
M 972.00 125.00 
C 948.00 125.00 924.00 125.00 900.00 125.00
C 899.65 101.42 909.77 78.87 936.00 77.00 C 962.24 75.13 974.97 100.86 972.00 125.00 Z"/>
</g>
<g fill="#0231B5" fill-opacity="0.96" stroke="None">
<path d="
M 1313.00 54.00 
C 1277.62 51.28 1245.04 75.08 1237.78 108.78 C 1230.52 142.48 1231.84 186.50 1259.25 209.75 C 1286.65 233.01 1327.89 234.29 1356.75 212.75 C 1385.61 191.21 1388.36 147.86 1382.93 113.07 C 1377.49 78.28 1346.85 56.60 1313.00 54.00
M 1319.00 79.00 
C 1351.04 84.20 1348.98 124.11 1350.00 150.00 C 1351.02 175.89 1332.60 210.55 1300.78 201.22 C 1268.95 191.89 1269.50 159.85 1269.33 131.33 C 1269.16 102.81 1285.71 73.59 1319.00 79.00 Z"/>
</g>
<g fill="#0332B5" fill-opacity="0.95" stroke="None">
<path d="
M 54.00 77.00 
C 53.35 74.08 54.71 63.44 53.00 61.00
C 37.32 58.67 19.50 60.67 3.00 60.00
C 3.00 66.00 3.00 72.00 3.00 78.00
C 25.03 76.86 24.56 103.20 31.07 118.93 C 37.58 134.65 42.13 153.54 48.07 169.93 C 54.02 186.31 60.25 204.14 65.00 221.00
C 75.28 219.17 92.39 223.45 101.99 220.99 C 111.59 218.53 109.62 203.86 114.23 196.23 C 118.84 188.60 121.29 178.39 125.02 170.02 C 128.76 161.65 131.18 152.63 135.02 144.02 C 138.87 135.42 141.27 125.91 145.08 117.08 C 148.88 108.24 151.61 99.66 155.68 90.68 C 159.74 81.69 162.43 70.60 161.00 60.00
C 146.33 60.00 131.67 60.00 117.00 60.00
C 117.00 66.00 117.00 72.00 117.00 78.00
C 134.96 76.04 125.39 94.83 121.78 104.78 C 118.16 114.72 113.44 126.48 109.93 136.93 C 106.41 147.37 102.01 158.82 98.32 169.32 C 94.64 179.82 91.27 191.00 87.00 201.00
C 80.17 158.56 63.25 118.74 54.00 77.00 Z"/>
</g>
<g fill="#5658FB" fill-opacity="0.01" stroke="None">
<path d="
M 54.00 77.00 
C 53.58 72.94 55.85 63.85 53.00 61.00
C 54.71 63.44 53.35 74.08 54.00 77.00 Z"/>
</g>
<g fill="#000000" fill-opacity="0.00" stroke="None">
<path d="
M 1123.00 76.00 
C 1077.92 68.68 1067.25 151.80 1110.98 161.02 C 1154.70 170.24 1165.76 82.94 1123.00 76.00 Z"/>
</g>
<g fill="#000000" fill-opacity="0.00" stroke="None">
<path d="
M 302.00 125.00 
C 305.79 100.56 292.26 74.99 266.01 77.01 C 239.76 79.02 230.36 101.66 230.00 125.00
C 254.00 125.00 278.00 125.00 302.00 125.00 Z"/>
</g>
<g fill="#000000" fill-opacity="0.00" stroke="None">
<path d="
M 790.00 125.00 
C 792.70 100.43 779.86 74.65 753.01 77.01 C 726.15 79.36 718.92 101.83 717.00 125.00
C 741.33 125.00 765.67 125.00 790.00 125.00 Z"/>
</g>
<g fill="#000000" fill-opacity="0.00" stroke="None">
<path d="
M 972.00 125.00 
C 974.97 100.86 962.24 75.13 936.00 77.00 C 909.77 78.87 899.65 101.42 900.00 125.00
C 924.00 125.00 948.00 125.00 972.00 125.00 Z"/>
</g>
<g fill="#000000" fill-opacity="0.00" stroke="None">
<path d="
M 1319.00 79.00 
C 1285.71 73.59 1269.16 102.81 1269.33 131.33 C 1269.50 159.85 1268.95 191.89 1300.78 201.22 C 1332.60 210.55 1351.02 175.89 1350.00 150.00 C 1348.98 124.11 1351.04 84.20 1319.00 79.00 Z"/>
</g>
<g fill="#FE5A54" fill-opacity="0.98" stroke="None">
<path d="
M 1599.00 166.00 
C 1557.66 166.00 1516.34 166.00 1475.00 166.00
C 1475.00 186.00 1475.00 206.00 1475.00 226.00
C 1516.34 226.00 1557.66 226.00 1599.00 226.00
C 1599.00 206.00 1599.00 186.00 1599.00 166.00 Z"/>
</g>
</svg>